# xmcd
#
# Track frame offsets:
#	150
#	38661
#	65525
#	136004
#	172000
#	202915
#	230361
#	248387
#	286845
#	305333
#
# Disc length: 4342 seconds
#
# Revision: 1
# Processed by: cddbd v1.5.2PL0 Copyright (c) Steve Scherf et al.
# Submitted via: audiograbber 1.83.01
#
DISCID=7a10f40a
DTITLE=Grateful Dead - 82-04-14 Glens Falls Civic Centre, Glens Falls NY
DYEAR=1900
DGENRE=
TTITLE0=China Cat Sunflower
TTITLE1=I Know You Rider
TTITLE2=Playing In The Band
TTITLE3=Drums
TTITLE4=Space
TTITLE5=The Wheel
TTITLE6=I Need A Miracle
TTITLE7=Black Peter
TTITLE8=Playing In The Band Reprise
TTITLE9=Johnny B Goode
EXTD=
EXTT0=
EXTT1=
EXTT2=
EXTT3=
EXTT4=
EXTT5=
EXTT6=
EXTT7=
EXTT8=
EXTT9=
PLAYORDER=
